<svg fill="#F3A7BA" xmlns="http://www.w3.org/2000/svg"  viewBox="0 0 48 48" width="48px" height="48px"><path d="M 13.978516 4.8457031 C 13.312516 4.8457031 12.652578 4.9520625 12.017578 5.1640625 C 8.8485781 6.2210625 7.0707344 9.6771406 8.0527344 12.869141 L 10.326172 20.259766 C 8.9111719 21.357766 8 23.075 8 25 L 8 27 L 8 28.5 C 8 36.495 14.505 43 22.5 43 C 28.491 43 33.759547 39.327313 35.935547 33.945312 C 38.223547 33.656312 40.179172 32.016766 40.826172 29.759766 L 41.789062 26.402344 C 42.219062 24.902344 42.039203 23.324938 41.283203 21.960938 C 40.527203 20.596937 39.284156 19.607734 37.785156 19.177734 L 37.695312 19.152344 C 37.239312 19.021344 36.772734 18.947688 36.302734 18.929688 C 35.505734 17.195688 33.986719 15.805281 32.011719 15.238281 C 31.767719 15.168281 31.520484 15.112313 31.271484 15.070312 L 31.949219 12.869141 C 32.931219 9.6771406 31.153375 6.2200625 27.984375 5.1640625 C 27.349375 4.9530625 26.689437 4.8476563 26.023438 4.8476562 C 23.351437 4.8476562 20.988578 6.5518906 20.142578 9.0878906 L 20 9.5136719 L 19.857422 9.0859375 C 19.012422 6.5499375 16.650516 4.8457031 13.978516 4.8457031 z M 14.152344 8.8496094 C 15.007198 8.9135148 15.771496 9.4771192 16.0625 10.349609 L 19.050781 19.316406 A 1.0001 1.0001 0 0 0 20.949219 19.316406 L 23.9375 10.351562 C 24.325618 9.1879028 25.554163 8.572742 26.71875 8.9609375 C 27.86313 9.3426287 28.479561 10.540864 28.125 11.693359 L 25.246094 21.048828 C 25.162196 21.04364 25.084165 21 25 21 L 14.738281 21 L 11.875 11.693359 C 11.520439 10.540864 12.13687 9.3406756 13.28125 8.9589844 C 13.572034 8.8619984 13.867392 8.8283076 14.152344 8.8496094 z M 30.349609 18.982422 C 30.533628 18.996663 30.719508 19.029513 30.904297 19.082031 L 30.90625 19.082031 C 32.397086 19.51478 33.23887 21.034742 32.810547 22.511719 A 1.0001 1.0001 0 0 0 32.808594 22.513672 L 31.238281 27.994141 A 1.0001 1.0001 0 0 0 31.238281 27.998047 C 30.890253 29.227252 29.78395 30.009766 28.570312 30.009766 C 28.328957 30.009766 28.071279 29.973855 27.806641 29.898438 L 27.804688 29.898438 C 27.148446 29.70912 26.637406 29.290104 26.285156 28.767578 C 27.855369 28.226559 29 26.746683 29 25 C 29 23.896908 28.545131 22.892787 27.826172 22.173828 C 27.667832 22.01549 27.446104 21.911327 27.240234 21.791016 L 27.470703 20.988281 L 27.470703 20.986328 C 27.84718 19.690905 29.061476 18.882736 30.349609 18.982422 z M 36.3125 22.955078 C 36.435108 22.965 36.558075 22.988039 36.681641 23.023438 C 37.670444 23.307357 38.226953 24.311819 37.943359 25.298828 L 36.980469 28.65625 C 36.697504 29.643351 35.691653 30.201155 34.703125 29.917969 C 34.617098 29.893308 34.538218 29.857418 34.458984 29.822266 A 1.0001 1.0001 0 0 0 34.138672 29.640625 C 33.520548 29.201984 33.218556 28.418536 33.441406 27.640625 L 34.404297 24.285156 A 1.0001 1.0001 0 0 0 34.40625 24.285156 C 34.653844 23.421443 35.454242 22.885628 36.3125 22.955078 z M 14.162109 23 L 25 23 C 25.214159 23 25.409119 23.040983 25.582031 23.099609 A 1.0001 1.0001 0 0 0 25.845703 23.201172 C 26.045953 23.288122 26.239324 23.415105 26.412109 23.587891 C 26.773147 23.94893 27 24.443092 27 25 C 27 26.101045 26.152508 26.962392 25.060547 26.994141 A 1.0001 1.0001 0 0 0 24.640625 27 L 18 27 L 18 29 C 20.218937 29 22 30.781063 22 33 L 22 34 A 1.0001 1.0001 0 1 0 24 34 L 24 33 C 24 31.452358 23.368828 30.066866 22.398438 29 L 24.142578 29 C 24.676748 30.324784 25.789121 31.398792 27.253906 31.820312 A 1.0001 1.0001 0 0 0 27.255859 31.822266 C 27.690522 31.946455 28.132273 32.009766 28.570312 32.009766 C 29.959808 32.009766 31.233915 31.359525 32.130859 30.333984 C 32.297065 30.56905 32.49218 30.781348 32.701172 30.980469 C 32.2345 32.883485 31.264727 34.58293 29.923828 35.923828 C 28.022871 37.824785 25.40956 39 22.5 39 C 16.690682 39 12 34.309318 12 28.5 L 12 27 L 12 25 C 12 23.889691 12.865423 23.029531 13.970703 23.011719 A 1.0001 1.0001 0 0 0 14.162109 23 z"/></svg>