<?xml version="1.0" encoding="UTF-8"?>
<svg xmlns="http://www.w3.org/2000/svg" xmlns:xlink="http://www.w3.org/1999/xlink" viewBox="0 0 50 50" width="50px" height="50px">
<g id="surface17989642">
<path style=" stroke:none;fill-rule:nonzero;fill:rgb(95.294118%,65.490198%,72.941178%);fill-opacity:1;" d="M 14 4 C 8.484375 4 4 8.484375 4 14 L 4 36 C 4 41.515625 8.484375 46 14 46 L 36 46 C 41.515625 46 46 41.515625 46 36 L 46 14 C 46 8.484375 41.515625 4 36 4 Z M 14 6 L 36 6 C 40.410156 6 44 9.589844 44 14 L 44 36 C 44 40.410156 40.410156 44 36 44 L 14 44 C 9.589844 44 6 40.410156 6 36 L 6 14 C 6 9.589844 9.589844 6 14 6 Z M 21 12 C 13.460938 12 11 18.230469 11 22 C 11 25.769531 13.222656 27.410156 13.222656 28.671875 C 13.222656 30.738281 11 32 11 32 L 21 32 C 21.640625 32 22.25 31.949219 22.828125 31.847656 C 23.53125 31.738281 24.191406 31.558594 24.800781 31.320312 C 28.75 29.800781 31 25.949219 31 22.050781 C 31 21.722656 30.980469 21.371094 30.941406 21 C 30.871094 20.371094 30.738281 19.699219 30.539062 19.007812 C 29.519531 15.621094 26.71875 12 21 12 Z M 21 14 C 25.550781 14 27.6875 16.71875 28.527344 19.289062 C 28.757812 19.96875 28.890625 20.628906 28.949219 21.242188 C 28.988281 21.53125 29 21.800781 29 22.050781 C 29 25.03125 27.320312 28.160156 24.140625 29.429688 C 23.550781 29.660156 22.910156 29.828125 22.210938 29.921875 C 21.820312 29.96875 21.421875 30 21 30 L 15.039062 30 C 15.160156 29.589844 15.222656 29.140625 15.222656 28.671875 C 15.222656 27.671875 14.738281 26.839844 14.277344 26.039062 C 13.679688 25.007812 13 23.851562 13 22 C 13 19.230469 14.671875 14 21 14 Z M 21 18.007812 C 20.910156 18.007812 20.820312 18.054688 20.777344 18.148438 L 19.875 20.273438 C 19.84375 20.339844 19.78125 20.390625 19.707031 20.40625 L 17.203125 20.890625 C 17.003906 20.9375 16.945312 21.1875 17.097656 21.320312 L 18.984375 22.527344 C 19.054688 22.585938 19.085938 22.671875 19.070312 22.757812 L 18.597656 24.714844 C 18.566406 24.910156 18.761719 25.0625 18.941406 24.984375 L 20.898438 24.019531 C 20.964844 23.992188 21.035156 23.992188 21.097656 24.019531 L 23.046875 24.980469 C 23.230469 25.054688 23.429688 24.902344 23.394531 24.707031 L 22.929688 22.761719 C 22.914062 22.675781 22.945312 22.585938 23.015625 22.527344 L 24.90625 21.320312 C 25.0625 21.183594 25.003906 20.933594 24.804688 20.886719 L 22.292969 20.40625 C 22.21875 20.390625 22.15625 20.339844 22.125 20.273438 L 21.222656 18.148438 C 21.179688 18.054688 21.089844 18.007812 21 18.007812 Z M 32.640625 19.121094 C 32.769531 19.667969 32.871094 20.230469 32.929688 20.789062 C 32.949219 20.929688 32.960938 21.082031 32.960938 21.222656 C 37.941406 22.378906 38 27.941406 38 28 C 38 29.609375 37.402344 30.628906 36.878906 31.539062 C 36.449219 32.277344 36 33.050781 36 34 C 36 34.351562 36.039062 34.691406 36.109375 35 L 31 35 C 28.851562 35 27.160156 34.199219 25.980469 32.992188 C 25.832031 33.058594 25.679688 33.121094 25.527344 33.179688 C 25.007812 33.390625 24.46875 33.550781 23.917969 33.671875 C 25.460938 35.648438 27.878906 37 31 37 L 40 37 C 40 37 38 35.871094 38 34 C 38 32.871094 40 31.390625 40 28 C 40 24.898438 38.140625 19.9375 32.640625 19.121094 Z M 32.640625 19.121094 "/>
</g>
</svg>
